<svg width="24" height="24" viewBox="0 0 24 24" fill="none" xmlns="http://www.w3.org/2000/svg">
    <path d="M3.13774 14.824L2.6432 14.8951L3.13774 14.824L2.85897 12.8867C2.66769 11.5573 2.53062 10.5998 2.50446 9.83321C2.47873 9.07894 2.56324 8.55624 2.78623 8.0911L2.33718 7.87582L2.78623 8.0911C3.00934 7.62572 3.36508 7.23045 3.97163 6.77413C4.5878 6.31057 5.42313 5.81218 6.58279 5.12137L7.96763 4.29643C9.02085 3.66903 9.77945 3.21783 10.418 2.91979C11.0462 2.62655 11.5215 2.5 12 2.5C12.4785 2.5 12.9538 2.62655 13.582 2.91979C14.2206 3.21783 14.9791 3.66903 16.0323 4.29643L16.0323 4.29644L17.4172 5.12137C17.4172 5.12137 17.4172 5.12137 17.4172 5.12138C18.5769 5.81218 19.4122 6.31057 20.0284 6.77413C20.6349 7.23045 20.9906 7.62571 21.2137 8.09108L21.2137 8.09111C21.4367 8.55625 21.5213 9.07895 21.4955 9.83322C21.4694 10.5998 21.3323 11.5573 21.141 12.8867L21.141 12.8867L20.8623 14.824C20.8623 14.824 20.8623 14.824 20.8623 14.824C20.6167 16.5307 20.4383 17.7639 20.1799 18.6995C19.9255 19.6212 19.6087 20.1925 19.1247 20.6093C18.6403 21.0264 18.0246 21.2575 17.0681 21.3774C16.0979 21.4991 14.8423 21.5 13.1061 21.5H10.8939C9.15769 21.5 7.90209 21.4991 6.93188 21.3774C5.97534 21.2575 5.35971 21.0264 4.87528 20.6093L4.54903 20.9882L4.87528 20.6093C4.39125 20.1925 4.07451 19.6212 3.82003 18.6995C3.56171 17.7639 3.38331 16.5307 3.13774 14.824Z" stroke="black" stroke-width="1.4"/>
    <path d="M8.25 18C8.25 17.5858 8.58579 17.25 9 17.25H15C15.4142 17.25 15.75 17.5858 15.75 18C15.75 18.4142 15.4142 18.75 15 18.75H9C8.58579 18.75 8.25 18.4142 8.25 18Z" fill="black"/>
</svg>
